<svg width="512" height="512" viewBox="0 0 512 512" fill="none" xmlns="http://www.w3.org/2000/svg">
<path d="M124.265 225.68C122.6 229.507 120.338 234.621 117.69 240.564C112.392 252.455 105.518 267.727 98.7114 282.797C91.9032 297.87 85.1577 312.75 80.1144 323.862C77.5927 329.418 75.496 334.033 74.03 337.258C73.2971 338.87 72.7215 340.136 72.3294 340.998C72.1334 341.429 71.9825 341.759 71.8812 341.982C71.8306 342.093 71.7931 342.179 71.7673 342.235C71.7582 342.255 71.7503 342.272 71.7443 342.285L71.5469 342.735C67.5042 352.225 69.5378 363.238 76.7458 370.661L163.191 459.687L163.608 460.105C163.795 460.289 163.985 460.469 164.177 460.646C199.838 384.574 197.781 330.779 182.226 292.832C169.031 260.642 145.71 238.806 124.959 224.072C124.735 224.589 124.505 225.127 124.265 225.68Z" fill="black"/>
<path d="M305.735 320.426C274.988 308.919 241.079 311.628 205.309 319.732C211.956 358.275 205.966 406.636 177.568 467.15C178.102 467.235 178.64 467.304 179.181 467.355L179.769 467.404L179.803 467.407H179.811C179.817 467.407 179.826 467.408 179.837 467.409L179.935 467.416L180.319 467.445C180.656 467.471 181.151 467.509 181.782 467.557L187.035 467.955C191.401 468.287 197.268 468.731 203.269 469.186C215.268 470.097 227.817 471.05 229.979 471.216L231.584 471.347C248.19 472.79 265.447 476.84 282.167 481.503C290.703 483.883 299.187 486.449 307.412 488.937L307.735 489.034C315.047 491.246 322.143 493.39 328.995 495.322L331.917 496.137L331.929 496.14L332.721 496.346C349.367 500.389 367.324 486.856 369.857 468.043L370.16 465.867C372.797 447.462 377.912 426.145 387.775 406.835C363.827 356.767 335.632 331.615 305.735 320.426Z" fill="black"/>
<path d="M305.78 45.8435C306.056 55.3591 304.901 64.1711 302.722 72.5985C297.642 92.249 286.798 109.915 277.993 127.854C268.992 146.191 261.101 166.452 259.921 193.634C258.77 220.17 263.997 253.855 281.685 299.229C291.592 300.563 301.37 302.9 310.952 306.486C343.474 318.658 372.579 344.721 396.847 391.658C417.006 361.49 431.273 338.015 438.558 325.679L438.559 325.678L438.724 325.385C440.368 322.336 440.084 318.413 437.764 315.337C427.053 301.146 406.15 271.793 394.644 244.275C388.523 229.634 385.142 211.363 383.247 194.503C381.339 177.533 380.883 161.466 380.833 150.973C380.803 144.65 378.801 138.61 375.038 133.828L305.78 45.8435Z" fill="black"/>
<path d="M286.926 22.2329C277.57 13.0426 262.528 12.3409 252.334 21.0349L251.812 21.4916L149.551 113.487C145.268 117.34 142.41 122.52 141.429 128.186L141.339 128.736C139.179 143.058 136.297 163.411 133.674 181.167C132.368 190.006 131.129 198.18 130.09 204.541C129.836 206.095 129.586 207.593 129.343 208.999C152.316 224.598 180.423 249.188 195.999 287.187C198.344 292.908 200.391 298.908 202.095 305.196C223.149 300.428 244.4 297.276 265.25 297.901C249.046 254.423 243.849 220.692 245.051 192.988C246.354 162.968 255.151 140.611 264.632 121.296C274.308 101.584 283.738 86.5634 288.312 68.8726C291.74 55.6127 292.33 40.8798 286.926 22.2329Z" fill="black"/>
</svg>
